<svg width="21" height="20" viewBox="0 0 21 20"
                          fill="none" xmlns="http://www.w3.org/2000/svg">
                          <path
                            d="M13.6506 7.92199C14.9766 6.71305 16.7698 5.07801 16.9332 1.17188H18.1172V0H2.88281V1.17188H4.06676C4.2302 5.07801 6.0234 6.71305 7.34941 7.92199C8.23891 8.73297 8.74219 9.22934 8.74219 10C8.74219 10.7707 8.23891 11.267 7.34941 12.078C6.0234 13.287 4.2302 14.922 4.06676 18.8281H2.88281V20H18.1172V18.8281H16.9332C16.7698 14.922 14.9766 13.287 13.6506 12.078C12.7611 11.267 12.2578 10.7707 12.2578 10C12.2578 9.22934 12.7611 8.73297 13.6506 7.92199ZM9.91406 14.3921C9.73309 14.4295 9.5543 14.4838 9.3798 14.556L5.79086 16.0411C6.37695 14.5509 7.32094 13.6898 8.13895 12.944C9.05184 12.1117 9.91406 11.3256 9.91406 10V14.3921ZM12.8611 12.944C13.6791 13.6898 14.623 14.5509 15.2091 16.0411L11.6202 14.5559C11.4457 14.4837 11.2669 14.4294 11.0859 14.3921V10C11.0859 11.3256 11.9482 12.1117 12.8611 12.944ZM5.77027 3.90625C5.48695 3.16801 5.29129 2.27664 5.24008 1.17188H15.7599C15.7087 2.27664 15.513 3.16801 15.2297 3.90625H5.77027Z"
                            fill="white"></path>
                        </svg>