<?xml version="1.0" encoding="UTF-8" standalone="no"?>
<!-- Created with Inkscape (http://www.inkscape.org/) -->

<svg
   version="1.1"
   id="svg1"
   width="377"
   height="274"
   viewBox="0 0 377 274"
   sodipodi:docname="koreanSchool-logo.svg"
   inkscape:version="1.4 (86a8ad7, 2024-10-11)"
   xmlns:inkscape="http://www.inkscape.org/namespaces/inkscape"
   xmlns:sodipodi="http://sodipodi.sourceforge.net/DTD/sodipodi-0.dtd"
   xmlns="http://www.w3.org/2000/svg"
   xmlns:svg="http://www.w3.org/2000/svg">
  <defs
     id="defs1">
    <inkscape:path-effect
       effect="fill_between_many"
       method="originald"
       linkedpaths="#image1,0,1|"
       id="path-effect204" />
    <clipPath
       clipPathUnits="userSpaceOnUse"
       id="clipPath303">
      <path
         id="path304"
         style="fill:#ff0000;fill-opacity:1;fill-rule:nonzero;stroke:none"
         d="M -373.03516,32.001953 V 261.00195 H -54.035156 V 32.001953 Z m 134.07422,186.775387 c 0.0443,-6e-5 0.0972,0.0227 0.14844,0.0781 0.0501,0.0541 0.10004,0.10846 0.14844,0.16406 0.0532,0.0576 0.10841,0.11467 0.16601,0.16797 0.0707,0.0606 0.14295,0.11853 0.21485,0.17773 0.0146,0.012 0.0284,0.025 0.043,0.0371 0.0396,0.0254 0.0772,0.0504 0.125,0.082 0.19154,0.12735 0.37851,0.26206 0.55468,0.41015 0.0392,0.0329 0.0765,0.0661 0.11524,0.0996 0.16596,0.1477 0.33006,0.2993 0.49219,0.45117 0.016,0.0149 0.0309,0.03 0.0469,0.0449 0.0138,0.0129 0.0269,0.0262 0.0391,0.0391 10e-4,0.001 0.002,0.003 0.004,0.004 0.072,0.0545 0.14555,0.10727 0.20898,0.17188 0.0913,0.0954 0.18598,0.18683 0.28907,0.26953 0.0867,0.0657 0.18193,0.12119 0.27343,0.17969 0.0736,0.0468 0.1432,0.0978 0.2168,0.14453 0.0618,0.0376 0.12094,0.0797 0.18164,0.11914 0.0668,0.0445 0.13547,0.0852 0.19727,0.13672 0.0535,0.0559 0.11448,0.0997 0.17968,0.14062 0.0644,0.0428 0.13448,0.0782 0.20118,0.11719 0.20868,0.1219 0.0849,0.33405 -0.12305,0.21094 -0.0523,-0.031 -0.10594,-0.0604 -0.1582,-0.0918 0.0293,0.25789 -0.26946,0.41886 -0.59961,0.13672 -0.0301,-0.0258 -0.0597,-0.0504 -0.0898,-0.0762 -0.0518,-0.0417 -0.1049,-0.0832 -0.1582,-0.12305 -0.006,-0.004 -0.012,-0.007 -0.0176,-0.0117 -0.0128,0.0324 -0.0333,0.0603 -0.0586,0.084 0.013,0.0118 0.0236,0.0259 0.0371,0.0371 0.004,0.003 0.008,0.005 0.0117,0.008 0.0339,0.0123 0.0664,0.015 0.10156,0.0527 0.006,0.007 0.0114,0.0146 0.0176,0.0215 0.0237,0.008 0.05,0.0209 0.0762,0.0391 0.0223,0.0155 0.0461,0.0268 0.0703,0.0391 0.0379,0.0192 0.03,0.0449 0.0488,0.0684 0.009,0.005 0.0183,0.0103 0.0273,0.0156 0.20791,0.12328 0.0827,0.33265 -0.125,0.20898 -0.034,-0.0202 -0.0668,-0.0414 -0.0996,-0.0625 -0.0256,-0.0113 -0.0373,0.0315 -0.0664,-0.008 -0.0219,-0.028 -0.0443,-0.0549 -0.0664,-0.082 -0.0283,-0.0212 -0.0555,-0.0414 -0.084,-0.0625 -0.0123,0.005 -0.0234,0.0134 -0.043,0 -0.0341,-0.0234 -0.0675,-0.0482 -0.0996,-0.0742 -0.0584,-0.0463 -0.11388,-0.0957 -0.17188,-0.14258 -0.0487,-0.0389 -0.10369,-0.0693 -0.15429,-0.10547 -0.0581,-0.0448 -0.12015,-0.0802 -0.18555,-0.11328 -0.0949,-0.0489 -0.19356,-0.0916 -0.28516,-0.14648 -0.13801,-0.0813 -0.27772,-0.1595 -0.41015,-0.25 -0.13351,-0.0922 -0.26549,-0.18844 -0.40625,-0.26954 -0.11739,-0.0725 -0.23484,-0.14215 -0.34571,-0.22461 -0.0774,-0.0581 -0.15301,-0.11938 -0.22851,-0.17968 -0.0686,-0.0553 -0.14385,-0.1021 -0.21485,-0.1543 -0.081,-0.0611 -0.16052,-0.12401 -0.23632,-0.19141 -0.0634,-0.0449 -0.12582,-0.0914 -0.19532,-0.12695 -0.0853,-0.0522 -0.1675,-0.10571 -0.25,-0.16211 -0.054,-0.0386 -0.10681,-0.0805 -0.16601,-0.11133 -0.17423,-0.0906 -0.13638,-0.24971 0,-0.24804 0.0315,3.8e-4 0.0689,0.009 0.10937,0.0293 0.0711,0.0357 0.13287,0.085 0.19727,0.13086 0.0289,0.0197 0.0589,0.0374 0.0879,0.0566 0.0228,-0.0964 0.10519,-0.16421 0.22656,-0.17382 0.0338,-0.003 0.0702,5.4e-4 0.10938,0.008 -0.0225,-0.0902 0.0491,-0.0813 0.1289,-0.0645 -0.23072,-0.20985 -0.16567,-0.47423 0.0586,-0.52148 -6.2e-4,-6.8e-4 -0.001,-0.001 -0.002,-0.002 -0.0495,-0.057 -0.10154,-0.11217 -0.15234,-0.16797 -0.1119,-0.12285 -0.0583,-0.23424 0.0391,-0.23438 z" />
    </clipPath>
  </defs>
  <sodipodi:namedview
     id="namedview1"
     pagecolor="#505050"
     bordercolor="#eeeeee"
     borderopacity="1"
     inkscape:showpageshadow="0"
     inkscape:pageopacity="0"
     inkscape:pagecheckerboard="0"
     inkscape:deskcolor="#505050"
     inkscape:zoom="0.125"
     inkscape:cx="2796"
     inkscape:cy="572"
     inkscape:window-width="1920"
     inkscape:window-height="991"
     inkscape:window-x="-9"
     inkscape:window-y="-9"
     inkscape:window-maximized="1"
     inkscape:current-layer="g1" />
  <g
     inkscape:groupmode="layer"
     inkscape:label="Image"
     id="g1">
    <path
       style="display:inline;fill:#1f8fe8;fill-opacity:1;stroke-width:2.92376"
       d="m 153.86293,29.612725 c -1.03345,-1.079115 -0.21342,-2.614564 2.02195,-3.785971 1.31899,-0.691195 3.66776,-2.23163 5.21949,-3.4232 1.55174,-1.19156 4.96426,-3.574286 7.5834,-5.294943 2.61913,-1.720648 6.7956,-4.759292 9.28103,-6.752538 6.47122,-5.189697 8.9439,-6.8593006 10.16289,-6.8621675 0.58903,-0.00104 3.38216,1.8000602 6.20695,4.003217 2.8248,2.2031671 9.19873,6.9778105 14.1643,10.6103395 10.62814,7.774957 13.1299,9.873833 12.52364,10.506869 -0.24602,0.256904 -2.27576,0.658619 -4.51053,0.892711 -5.13955,0.538375 -62.14666,0.634532 -62.65312,0.105683 z"
       id="path209-8" />
    <path
       style="display:inline;fill:#fcffff;fill-opacity:1;stroke-width:2.92376"
       d="m 89.44226,73.044374 -7.335501,-0.321607 0.17846,-2.06222 c 0.09814,-1.13421 0.404311,-2.990206 0.680355,-4.124417 0.80814,-3.320612 1.574433,-9.092592 2.503117,-18.854511 1.251821,-13.15834 1.206825,-12.962464 2.977113,-12.962464 0.820382,0 10.267438,1.322663 20.993426,2.939257 24.90586,3.75373 38.6453,5.205611 55.89716,5.906808 42.01115,1.707518 75.18434,-0.400364 111.55176,-7.088187 10.45873,-1.923318 12.32979,-2.080481 12.91891,-1.085151 0.21899,0.369992 0.73626,6.136818 1.14946,12.815167 0.41321,6.678351 1.15928,14.299242 1.65789,16.935318 0.49862,2.636087 0.82153,5.420071 0.71774,6.186636 l -0.18887,1.393764 -11.56755,0.360695 C 267.39409,73.525667 99.641555,73.491535 89.44226,73.044408 Z"
       id="path210-2" />
    <path
       style="display:inline;fill:#ed3364;fill-opacity:1;stroke-width:2.0621"
       d="m 154.24769,139.32112 c -19.72411,-0.62421 -53.55813,-4.74621 -77.206985,-9.40613 -25.788401,-5.08148 -58.470649,-13.97762 -65.817321,-17.9155 l -2.0372679,-1.092 1.4313919,-0.32216 c 0.787257,-0.1772 6.876266,-0.51023 13.531123,-0.74006 13.24575,-0.45749 16.96671,-0.95117 22.49528,-2.98462 8.856287,-3.25743 14.164744,-6.70014 23.60405,-15.308001 l 4.151534,-3.785869 113.690375,0.112258 113.69041,0.112246 2.67371,2.493363 c 4.07614,3.801056 8.79933,7.475767 12.76406,9.930513 4.02513,2.49208 11.96838,6.13364 15.40497,7.06235 2.91133,0.78675 12.24333,1.75683 22.50354,2.33925 8.23817,0.46764 11.82877,0.88097 12.34395,1.42095 1.01769,1.06665 -6.97226,4.0972 -21.91049,8.31056 -28.52693,8.04613 -74.30274,16.22556 -103.55905,18.50439 -15.57312,1.21303 -66.32456,1.94667 -87.75328,1.26851 z"
       id="path230-4" />
    <path
       style="display:inline;fill:#ed3364;fill-opacity:1;stroke-width:5.83249"
       d="m 107.43541,185.57728 -21.532276,0.0643 v 0.50044 l 21.532276,0.0137 z"
       id="path232-5"
       sodipodi:nodetypes="ccccc" />
    <path
       style="display:inline;fill:#ed3364;fill-opacity:1;stroke-width:0.515526"
       d="m 85.995388,183.02466 c 5.04e-4,-4.89861 0.300145,-22.06385 0.500979,-28.69963 0.123455,-4.0791 0.255469,-6.18223 0.397286,-6.32949 0.06841,-0.0709 0.675952,-0.10805 1.669023,-0.1019 2.595042,0.0162 4.928927,0.29564 12.961444,1.55148 3.09617,0.48409 5.68175,0.88016 5.74575,0.88016 0.0883,0 0.11636,4.23781 0.11636,17.60936 v 17.60937 H 96.690674 85.99512 Z"
       id="path234-5" />
    <path
       style="display:inline;fill:#1f8fe8;fill-opacity:1;stroke-width:2.91624"
       d="m 88.004583,270.80629 c -0.877774,-0.37047 -1.277241,-1.21625 -1.547759,-3.27706 -0.200537,-1.52773 -0.364614,-20.45969 -0.364614,-42.07099 v -39.29328 h 10.412165 10.412175 v 42.6076 42.60761 l -8.864415,-0.0373 c -4.875429,-0.0204 -9.396835,-0.26196 -10.047552,-0.53662 z"
       id="path235-1" />
    <path
       style="display:inline;fill:#1f8fe8;fill-opacity:1;stroke-width:1.45814"
       d="m 96.645082,271.09671 c -5.534685,-0.11838 -8.355116,-0.2879 -8.764458,-0.527 -1.298617,-0.75848 -1.310694,-0.95918 -1.525097,-25.34178 -0.111553,-12.68678 -0.216429,-31.16601 -0.233063,-41.06493 l -0.03025,-17.99804 h 10.412166 10.41218 v 42.6076 42.60761 l -1.05529,-0.0546 c -0.5804,-0.0299 -4.72769,-0.13301 -9.216184,-0.22897 z"
       id="path239-7" />
    <path
       style="fill:#ed3364;fill-opacity:1;stroke-width:5.83249"
       d="m 267.89087,185.31925 22.39035,-0.0234 0.0592,0.36967 -22.46337,0.18653 z"
       id="path240-1"
       sodipodi:nodetypes="ccccc" />
    <path
       style="fill:#ed3364;fill-opacity:1;stroke-width:1.61103"
       d="m 268.10743,177.11267 c 0.002,-8.81775 0.4991,-22.74002 0.87812,-24.59272 0.16328,-0.79826 0.49605,-1.26875 1.11856,-1.58146 2.58231,-1.29724 18.10022,-3.53405 18.87864,-2.72123 0.47385,0.49478 0.77018,7.27708 1.04042,23.81328 l 0.21009,12.85513 -2.40506,0.21229 c -1.32278,0.11678 -6.30149,0.21229 -11.06383,0.21229 h -8.65877 z"
       id="path241-1" />
    <path
       style="fill:#1f8fe8;fill-opacity:1;stroke-width:1.61103"
       d="m 272.45845,271.45808 c -2.75501,-0.55663 -3.08169,-0.74948 -3.40705,-2.01127 -0.64352,-2.49536 -0.93787,-18.26448 -0.94178,-50.45346 l -0.004,-33.03379 h 11.03756 11.03757 l -0.006,29.62489 c -0.006,27.65172 -0.3669,49.76392 -0.86649,53.16251 -0.19022,1.29405 -0.35683,1.53429 -1.45842,2.10285 -1.10874,0.57222 -1.96888,0.64854 -7.9284,0.70358 -3.67659,0.0339 -7.0345,-0.01 -7.46201,-0.0954 z"
       id="path242-5" />
    <path
       style="fill:#fcffff;fill-opacity:1;stroke-width:0.830046"
       d="m 216.64261,239.41871 c -0.9939,-1.3868 -2.13191,-4.45687 -2.51897,-6.79553 -0.18599,-1.12379 -0.90312,-2.53363 -2.15294,-4.23266 -1.69577,-2.30519 -2.747,-4.79021 -2.52046,-5.95816 0.41344,-2.13152 2.50958,-3.98406 4.68289,-4.13865 1.38719,-0.0987 2.36006,0.37975 3.79678,1.86708 1.75659,1.81847 2.90547,3.69153 4.41162,7.19248 1.41135,3.28056 1.7368,4.46033 1.7542,6.35882 0.0183,2.01234 -0.0491,2.15273 -1.64932,3.4285 -0.94505,0.75344 -4.15915,2.43502 -5.04124,2.63755 -0.34974,0.0803 -0.49724,0.01 -0.76256,-0.35943 z"
       id="path354-2"
       inkscape:transform-center-x="0.99046024"
       inkscape:transform-center-y="-0.64935423" />
    <path
       style="fill:#fcffff;fill-opacity:1;stroke-width:5.83249"
       d="m 207.65152,223.39842 4.83673,9.21136 1.75882,-0.22957 -4.25963,-10.01485 z"
       id="path355-7" />
    <path
       style="fill:#fcffff;fill-opacity:1;stroke-width:5.83249"
       d="m 207.95382,221.16014 0.49466,-0.54523 0.82445,-0.68869 0.68704,-0.54522 0.96184,-0.77479 1.34658,-0.83218 1.07179,-0.63131 1.29163,-0.54524 1.07178,-0.28696 0.76949,0.1435"
       id="path356-6" />
    <path
       style="fill:#fcffff;fill-opacity:1;stroke-width:5.83249"
       d="m 212.98292,222.42276 -4.20466,-1.72176 6.8154,-3.98872 0.54963,1.92263 z"
       id="path357-1" />
    <path
       style="fill:#fcffff;fill-opacity:1;stroke-width:5.83249"
       d="m 216.47308,216.51141 0.82444,0.97565 2.22599,5.48091 -4.72681,-4.8496 1.01682,-1.60696 z"
       id="path358-4" />
    <path
       style="fill:#fcffff;fill-opacity:1;stroke-width:5.83249"
       d="m 214.41196,220.12708 -4.7543,2.86959 -2.03362,0.37304 0.35726,-2.23828 z"
       id="path359-2" />
    <path
       style="fill:#fcffff;fill-opacity:1;stroke-width:5.83249"
       d="m 209.32789,220.84448 -0.41221,-0.34435 -0.68704,0.45913 -0.10997,0.22957 z"
       id="path360-3" />
    <path
       style="fill:#fcffff;fill-opacity:1;stroke-width:5.83249"
       d="m 208.88818,221.50448 0.57711,-0.86086 -1.34658,0.28695 -0.32979,0.43044 -0.2748,0.34435 -0.10997,0.57392 -0.055,0.40173 0.0824,0.40174 0.16489,0.37305 0.38474,0.66001 0.16488,0.20088 0.19238,0.17216 z"
       id="path361-2" />
    <path
       style="fill:#fcffff;fill-opacity:1;stroke-width:5.83249"
       d="m 210.37218,220.7871 -1.26414,-0.14348 -0.35726,1.06174 c 0,0 2.44585,0.14347 2.33593,0.0574 -0.10997,-0.0861 -0.71453,-0.97565 -0.71453,-0.97565 z"
       id="path362-2" />
    <path
       style="fill:#fcffff;fill-opacity:1;stroke-width:5.83249"
       d="m 212.52914,232.62893 0.54409,1.05514 0.62184,1.29861 0.31092,0.97397 0.23319,1.54212 0.15546,1.70445 0.0776,1.29862 0.15546,0.97397 0.38864,0.2435 0.62184,-0.2435 0.46637,0.081 0.93275,-0.81163 0.38866,-0.6493 0.31091,-0.64933 0.54412,-0.48698 0.46636,-1.13629 0.15545,-0.73049 0.2332,-0.73046 z"
       id="path363-1" />
    <path
       style="fill:#fcffff;fill-opacity:1;stroke-width:5.83249"
       d="m 212.60686,232.46662 2.09869,2.27259 0.38865,-2.67843 z"
       id="path364-6" />
    <path
       style="fill:#fcffff;fill-opacity:1;stroke-width:5.83249"
       d="m 212.91778,229.95052 0.62183,3.97703 -0.93275,-1.13628 -0.69956,-1.8668 z"
       id="path365-8" />
    <path
       style="fill:#fcffff;fill-opacity:1;stroke-width:5.83249"
       d="m 214.86101,230.92447 0.23319,7.87293 2.09869,-4.78868 z"
       id="path366-5" />
    <path
       style="fill:#fcffff;fill-opacity:1;stroke-width:5.83249"
       d="m 214.93874,241.71931 0.62183,1.05514 2.25416,-3.32773 -2.72053,0.48698 z"
       id="path367-7" />
    <path
       style="fill:#fcffff;fill-opacity:1;stroke-width:5.83249"
       d="m 215.40511,240.66418 3.03145,-4.70753 0.31092,-2.27258 -1.55459,3.32772 -1.78778,3.65239 -0.69956,0.8928 0.69956,1.21747 0.62184,-2.51609 2.25415,-8.6034 -2.25415,8.6034"
       id="path368-6" />
    <path
       style="fill:#fcffff;fill-opacity:1;stroke-width:5.83249"
       d="m 217.27061,217.20775 3.9642,7.71058 -1.16593,-3.1654 -0.54412,-1.29862 -0.93274,-1.62328 -0.77729,-1.05513 z"
       id="path369-1" />
    <path
       style="fill:#fcffff;fill-opacity:1;stroke-width:5.83249"
       d="m 217.34835,217.45124 -1.08821,-0.81164"
       id="path370-8" />
    <path
       style="fill:#fcffff;fill-opacity:1;stroke-width:5.83249"
       d="m 217.27061,222.15874 0.23319,5.68151 1.55459,1.94794 -1.94323,-8.27875 z"
       id="path371-9" />
    <path
       style="fill:#fcffff;fill-opacity:1;stroke-width:5.83249"
       d="m 216.43186,216.45402 0.45342,0.27262 0.42598,0.53087 2.0611,3.55828 1.12673,2.38175 0.92063,2.16655 -3.64128,-2.28134 -1.49774,-4.4335 z"
       id="path372-2" />
    <path
       style="fill:#fcffff;fill-opacity:1;stroke-width:5.83249"
       d="m 223.94802,235.1637 0.055,1.3774 -0.1649,1.09046 -0.055,0.6887 v 0.91826 l -0.10987,1.03304 -0.98933,-0.6887 -1.20919,-0.86086 -0.71451,-1.03306 -0.60459,-0.45913 -0.27481,-1.3774 z"
       id="path373-7" />
    <path
       style="fill:#fcffff;fill-opacity:1;stroke-width:5.83249"
       d="m 221.4747,233.67152 0.93437,2.29568 z"
       id="path374-9" />
    <path
       style="fill:#fcffff;fill-opacity:1;stroke-width:5.83249"
       d="m 215.40511,242.73386 0.0971,0.2435 0.34978,-0.7102 -0.48582,-0.54785 z"
       id="path375-5" />
    <path
       style="fill:#fcffff;fill-opacity:1;stroke-width:5.83249"
       d="m 216.33786,239.10177 1.63232,-1.09572 -1.78776,1.17688 z"
       id="path376-4" />
    <path
       style="fill:#000000;fill-opacity:1;stroke-width:5.83249"
       d="m 217.6204,239.7105 0.29149,-0.52757 0.31091,-0.40581 0.25262,-0.32468 0.23319,-0.32464 0.38865,-0.30437 0.33034,-0.24349 0.25262,-0.0404 0.36922,0.0813 0.31092,0.10153 0.21376,0.14205 0.56353,0.30434 -2.60393,2.2929 z"
       id="path377-3" />
    <path
       style="fill:#1893ee;fill-opacity:1;stroke-width:3.22201"
       d="m 187.26709,241.9723 c -6.00953,-3.85066 -23.20391,-16.45251 -28.63829,-20.98917 -2.75472,-2.29965 -8.06427,-6.66483 -11.79899,-9.70036 -8.74001,-7.10378 -17.51471,-16.02281 -18.05046,-18.34736 -0.65967,-2.86237 0.28167,-6.39475 2.19142,-8.22325 1.9308,-1.84863 24.3991,-16.71487 42.29091,-27.98193 12.89353,-8.11947 12.71243,-8.07596 18.31436,-4.39938 11.29266,7.41142 45.33573,31.37192 47.80228,33.64461 2.06922,1.90659 2.92854,3.16583 2.79824,4.10055 -0.27595,1.97979 -6.44303,7.10935 -26.77154,22.26754 -21.24255,15.83975 -24.096,18.42512 -24.096,21.83214 0,1.2945 0.26752,2.52628 0.59447,2.73728 0.98272,0.63419 4.35217,-1.16456 10.81346,-5.77265 3.36728,-2.40149 6.18368,-4.27254 6.25866,-4.15787 0.075,0.11469 0.72531,1.21272 1.44516,2.44012 l 1.30882,2.23164 -5.70198,4.20782 c -7.77518,5.73778 -12.30363,8.53538 -13.78583,8.51664 -0.68403,-0.009 -2.92262,-1.09152 -4.97469,-2.40637 z"
       id="path378-1" />
    <path
       style="fill:#ed3364;fill-opacity:1;stroke-width:0.402754"
       d="m 220.74022,223.43698 c -0.63447,-1.75766 -1.08939,-2.84001 -1.49447,-3.55585 -0.23131,-0.40873 -0.42055,-0.75676 -0.42055,-0.77344 0,-0.0166 0.48095,-0.36595 1.06879,-0.77618 2.02478,-1.41306 6.55048,-4.73589 16.38145,-12.0274 3.25533,-2.41446 6.27235,-4.40349 8.15483,-5.37628 1.48271,-0.76619 1.82447,-0.78438 2.44468,-0.13011 1.01743,1.0733 0.81806,2.79339 -0.57505,4.96155 -0.942,1.46604 -2.63828,2.94905 -7.53712,6.58941 -4.67896,3.47697 -6.56083,4.76126 -13.33058,9.09752 -1.77417,1.13645 -3.47972,2.23648 -3.7901,2.44453 -0.31038,0.20806 -0.57271,0.37824 -0.58297,0.37818 -0.0103,-8e-5 -0.15376,-0.37444 -0.31891,-0.83193 z"
       id="path379-2" />
    <path
       style="fill:#ed3364;fill-opacity:1;stroke-width:3.22201"
       d="m 181.82565,265.13947 c -15.11921,-1.62713 -27.65132,-7.66428 -32.0206,-15.42538 l -1.71352,-3.04377 v -14.06844 c 0,-7.73765 0.18589,-14.26257 0.41312,-14.49983 0.22721,-0.23727 1.06668,-0.0708 1.86549,0.36987 3.00592,1.65825 12.76316,8.68229 15.75458,11.34139 5.01325,4.45632 19.6166,15.14566 23.19175,16.97591 2.779,1.42265 3.53755,1.56949 4.85938,0.94058 2.46001,-1.17038 11.61855,-7.60113 15.37067,-10.79265 3.78444,-3.219 3.82385,-3.19918 4.51902,2.27274 0.47027,3.70187 1.22196,4.58411 2.40552,2.8233 0.4461,-0.66367 1.36348,-1.91791 2.0386,-2.78716 l 1.22748,-1.58047 1.72659,1.41814 c 0.94961,0.77998 1.96867,1.41814 2.26456,1.41814 0.91654,0 0.60169,-8.97285 -0.40294,-11.48352 -0.51751,-1.29329 -0.86729,-2.40929 -0.7773,-2.48 0.69576,-0.54669 4.04824,-1.36609 4.67192,-1.14189 0.58559,0.21053 0.77729,3.35737 0.77729,12.75957 v 12.48011 l -2.02096,2.00941 c -9.61875,9.56381 -26.63463,14.37905 -44.15065,12.49395 z"
       id="path380-3" />
    <path
       style="fill:#000000;fill-opacity:1;stroke-width:5.83249"
       d="m 217.6295,239.72292 0.27701,-0.53262 0.4309,-0.55555 0.36936,-0.49586 0.72991,-0.56014 0.22864,-0.0366 0.69472,0.17446 0.4441,0.23875 0.24625,0.12856 0.0924,0.0964 -0.38253,0.32139 -1.02012,-0.83562 -1.79399,2.31404 z"
       id="path381-3" />
    <path
       style="fill:#000000;fill-opacity:0;stroke-width:5.83249"
       d="m 221.73192,238.68067 0.18468,-0.2158 -0.21986,0.21121"
       id="path382-4" />
  </g>
</svg>
