<?xml version="1.0" encoding="UTF-8"?>
<svg id="Layer_1" data-name="Layer 1" xmlns="http://www.w3.org/2000/svg" viewBox="0 0 346.46 302.45" fill="#76cefa">
  <path d="M172.4,67.85c77.14-.69,124.16,74.38,81.09,129.85-41.42,53.36-135.87,47.37-167.53-10.77-29.91-54.92,16.39-118.47,86.44-119.09ZM257.7,139.23c-10.34-50.09-73.99-77.33-126.38-52.13-18.49,8.9-34.15,25.32-39.82,43.03-8.38,26.2,17.81,47.51,47.84,38.03,15.4-4.86,25.63-23.85,38.83-32.83,17.6-11.97,47.17-14.3,66.46-4.01l13.06,7.91ZM90.38,167.2c12.75,54.05,89.87,76.15,138.69,40,12.89-9.55,29.44-31.78,28.69-46.84-.75-15.04-26.48-26.34-41.89-26.33-41.47.02-43.45,35.52-75.18,43.74-13.42,3.47-28.16,3.12-40.29-3.29-3.79-2-6.62-4.9-10.02-7.28Z"/>
  <path d="M7.28,242.11c2.02-.15,3.94,1.1,5.48,2.14,16.03,16.77,41.87,32.33,56.91,49.1,5.7,6.35-.51,11.62-6.8,7.82L2.9,249.5c-2.18-3.02.31-7.1,4.37-7.39Z"/>
  <path d="M257.16,20.41c2.23-1.93,6.51-1.91,8.47.45l56.89,49.11c3.69,3.33.18,8.55-4.86,8.12-1.42-.12-3.43-1.76-4.57-2.58-19.32-13.88-36.55-33.73-55.79-48.11-2.12-1.84-2.22-5.2-.13-7Z"/>
  <path d="M47.21,206.98c2.2-.39,3.93.14,5.49,1.5l56.17,48.43c5,5.14-2.85,11.04-8.32,6.53l-55.79-48.11c-3.41-2.51-1.84-7.6,2.45-8.35Z"/>
  <path d="M60.75,6.11c1.66,1.78,1.37,5.62-.53,7.29L10.5,56.34c-7.66,5.51-14.32-.6-7.94-7.5C15.92,34.38,37.08,21.29,51.16,6.88c2.43-2.04,7.12-3.42,9.59-.77Z"/>
  <path d="M81.13,23.65c1.55,1.46,1.98,5.09.2,6.67l-53.47,45.55c-5.12,1.66-9.65-3.04-6.86-7.22l52.03-44.85c1.74-2.12,6.32-1.83,8.11-.15Z"/>
  <path d="M101.47,41.22c1.77,1.53,2.4,5.05.21,6.65l-53.47,45.55c-5.71,1.68-10.11-3.69-6.07-7.84l51.22-44.25c2.13-1.83,6.03-1.91,8.11-.12Z"/>
  <path d="M340.42,237.56c6.15-1.04,7.65,4.7,4.27,8.92-2.25,2.8-17.47,15.92-20.73,17.88-6.93,4.17-13.39-.56-8.55-6.72,2.32-2.95,17.11-15.59,20.66-17.94,1.19-.79,2.89-1.89,4.35-2.14Z"/>
  <path d="M302.74,269.45c6.25-1.41,9.42,3.64,5.79,8.26-1.95,2.48-18.61,16.86-21.48,18.53-6.88,4.02-12.56-1.28-8.58-6.75,1.96-2.7,16.83-15.14,20.3-17.6,1.03-.73,2.78-2.17,3.98-2.44Z"/>
  <path d="M314.77,32.08c1.69-.33,3.73-.44,5.16.48,5.91,6.69,17.6,13.29,22.95,19.87,4.23,5.21-1.43,10.44-8.24,6.46-3.74-2.18-17.68-14.48-20.79-17.83-2.67-2.88-4.69-7.86.92-8.97Z"/>
  <path d="M278.6.2c.92-.18,1.87-.28,2.81-.14,3.43.5,20.75,18.42,25.33,21.11,1.27,1.53,1.02,4.91-.43,6.21-1.75,1.06-4.37,1.79-6.38.98l-25.53-22.91c-.54-2.29,1.61-4.75,4.2-5.24Z"/>
  <path d="M89.41,282.12c-2.58,2.23-5.52,1.55-8.09-.13-7.29-4.75-14.17-13.4-21.45-18.56-2.07-6.1,3.41-9.4,9.42-5.53,2.91,1.87,18.53,15.22,20.34,17.57,1.59,2.06,1.94,4.79-.21,6.65Z"/>
  <path d="M318.57,221.29c4.55-.66,7.86,4.08,5.5,7.41l-21.93,18.79c-5.41,3.12-11.48-1.83-7.84-6.77,1.75-2.37,16.9-15.26,19.92-17.28,1.13-.75,2.99-1.95,4.36-2.15Z"/>
  <path d="M27.64,224.54c2.11-.23,2.71.21,4.32,1.19,2.49,1.51,19.59,16.23,21.07,18.23,3.59,4.87-2.23,9.85-7.84,6.77-1.98-1.09-20.22-16.83-21.48-18.53-2.48-3.38-.69-7.15,3.93-7.66Z"/>
  <path d="M280.86,253.17c5.61-1.07,8.26,2.62,6.6,7.02l-22.25,19.16c-5.42,3-11.05-2.29-7.09-7.42,1.91-2.47,16.93-15.35,19.92-17.27.93-.6,1.57-1.25,2.82-1.49Z"/>
  <path d="M277.1,69.12c2.32-.41,3.31.11,5.1,1.19,2.74,1.65,18.04,14.86,19.97,17.23,4.16,5.12-1.78,10.27-7.5,7.12-2.22-1.22-18.73-15.49-20.38-17.53-2.47-3.06-1.66-7.23,2.82-8.02Z"/>
  <path d="M296.7,204.38c5.22-.94,8.78,3.64,5.82,7.66-1.23,1.67-18.78,16.81-20.72,17.88-5.61,3.08-11.43-1.9-7.84-6.77,1.61-2.18,17.16-15.5,19.92-17.27.91-.59,1.61-1.28,2.83-1.5Z"/>
  <path d="M241.61,37.33c1.6-.08,2.84.64,4.06,1.41,2.41,1.5,18.51,15.37,19.9,17.29,3.84,5.24-1.8,10.06-7.85,6.77-1.91-1.04-19.08-15.82-20.39-17.52-2.69-3.51-.42-7.72,4.26-7.94Z"/>
  <path d="M259.75,236.26c5.25-1.02,8.63,3.14,6.14,7.27-.68,1.12-18.95,17.01-20.62,17.97-5.54,3.17-11.42-1.69-8.23-6.45,1.15-1.71,17.53-15.79,19.89-17.3.93-.6,1.56-1.24,2.82-1.48Z"/>
</svg>